<svg width="33" height="36" viewBox="0 0 33 36" fill="none" xmlns="http://www.w3.org/2000/svg">
<path fill-rule="evenodd" clip-rule="evenodd" d="M6.51658 0.0767041C5.98603 0.322357 5.82099 0.688677 5.82099 1.62091V2.30296L4.66777 2.33876C3.74733 2.36732 3.42918 2.40539 3.09171 2.52723C1.60169 3.06532 0.649974 4.03644 0.137141 5.54214C0.00512548 5.92969 0 6.42546 0 18.7217C0 31.018 0.00512548 31.5138 0.137141 31.9013C0.658614 33.4324 1.65404 34.4278 3.18507 34.9493C3.57262 35.0812 4.06759 35.0864 16.3281 35.0864C30.2117 35.0864 29.3236 35.1131 30.2399 34.6674C31.1703 34.2146 31.8236 33.5661 32.2849 32.6369C32.7602 31.6795 32.7293 32.6496 32.7293 18.6851C32.7293 6.3849 32.7246 5.93093 32.591 5.54214C32.1426 4.2367 31.4042 3.35396 30.2965 2.7991C29.5922 2.44625 29.272 2.38042 28.0678 2.34089L26.9209 2.30325L26.8963 1.51152C26.8698 0.65624 26.8052 0.491642 26.3676 0.165007C26.0841 -0.0466716 25.3895 -0.0466716 25.106 0.165007C24.6675 0.492374 24.6039 0.655362 24.5772 1.52016L24.5523 2.32046H21.0507H17.5491L17.5243 1.52016C17.4976 0.655362 17.434 0.492374 16.9955 0.165007C16.7119 -0.0466716 16.0174 -0.0466716 15.7339 0.165007C15.2954 0.492374 15.2317 0.655362 15.205 1.52016L15.1802 2.32046H11.6786H8.17699L8.15217 1.52016C8.12559 0.659828 8.06093 0.491715 7.63413 0.173062C7.39148 -0.00808467 6.80836 -0.0583868 6.51658 0.0767041ZM13.3428 10.6649C13.6776 10.8168 13.9194 11.1388 13.9935 11.531C14.0917 12.0504 13.9226 12.2717 11.8437 14.3427C9.19599 16.9806 9.44706 16.9475 7.4054 14.9267C6.64588 14.1748 5.97863 13.4537 5.92269 13.3241C5.51434 12.3782 6.44123 11.4086 7.40876 11.7695C7.52211 11.8118 8.00141 12.2308 8.47382 12.7006L9.33277 13.5547L10.8169 12.0819C11.7458 11.1601 12.3694 10.5964 12.484 10.5751C12.8493 10.5071 13.0389 10.527 13.3428 10.6649ZM26.3677 13.0517C26.7519 13.3386 26.8717 13.5726 26.8717 14.0357C26.8717 14.4987 26.7519 14.7327 26.3677 15.0196C26.1696 15.1675 26.0774 15.171 21.7959 15.1927C18.859 15.2075 17.3386 15.1892 17.1586 15.1369C16.4145 14.9203 16.1272 13.9036 16.6385 13.2959C17.0094 12.8551 16.8675 12.8666 21.7227 12.8844C26.0827 12.9005 26.1693 12.9035 26.3677 13.0517ZM13.3428 21.2086C13.6776 21.3605 13.9194 21.6825 13.9935 22.0747C14.0917 22.5941 13.9226 22.8154 11.8437 24.8864C9.19599 27.5242 9.44706 27.4912 7.4054 25.4703C6.64588 24.7185 5.97863 23.9974 5.92269 23.8678C5.51434 22.9219 6.44123 21.9523 7.40876 22.3132C7.52211 22.3555 8.00141 22.7745 8.47382 23.2442L9.33277 24.0983L10.8169 22.6256C11.7458 21.7038 12.3694 21.1401 12.484 21.1188C12.8493 21.0508 13.0389 21.0706 13.3428 21.2086ZM26.3677 23.5954C26.7519 23.8823 26.8717 24.1163 26.8717 24.5793C26.8717 25.0424 26.7519 25.2764 26.3677 25.5633C26.1696 25.7112 26.0774 25.7147 21.7959 25.7364C18.859 25.7512 17.3386 25.7329 17.1586 25.6806C16.4145 25.464 16.1272 24.4472 16.6385 23.8396C17.0094 23.3988 16.8675 23.4103 21.7227 23.4281C26.0827 23.4441 26.1693 23.4472 26.3677 23.5954Z" fill="#3A63F3"/>
</svg>
