<svg width="26" height="30" viewBox="0 0 26 30" fill="none" xmlns="http://www.w3.org/2000/svg">
<path fill-rule="evenodd" clip-rule="evenodd" d="M11.0591 1.03292C10.955 1.08026 10.8007 1.18783 10.7163 1.27195C10.421 1.56609 10.3852 1.69926 10.3561 2.61109L10.329 3.45673L9.834 3.56157C8.87897 3.76382 7.84828 4.22348 6.94912 4.8482C6.3158 5.28817 5.22736 6.43681 4.79311 7.12341C4.21998 8.02968 3.80979 9.04135 3.58245 10.1096C3.48565 10.5643 3.46937 10.9196 3.43389 13.345C3.38987 16.3553 3.36121 16.6643 3.02738 17.7239C2.61741 19.0251 2.00329 20.0421 0.983746 21.1079C0.0999376 22.032 0 22.2294 0 23.0514C0 23.555 0.0166563 23.6546 0.147959 23.9352C0.43409 24.5468 0.998726 24.995 1.64324 25.1224C2.06267 25.2053 20.9326 25.2014 21.3647 25.1183C21.9855 24.9989 22.5503 24.5447 22.8355 23.9352C22.9668 23.6546 22.9835 23.555 22.9835 23.0514C22.9835 22.2352 22.876 22.0178 22.0483 21.1607C21.3455 20.4329 21.0287 20.0228 20.6501 19.3507C20.179 18.5144 19.8567 17.6007 19.6829 16.6088C19.6061 16.17 19.5812 15.5625 19.5493 13.345C19.5144 10.9159 19.4983 10.565 19.4012 10.1096C19.0411 8.42065 18.3551 7.11722 17.1736 5.87696C16.0069 4.65226 14.6714 3.88387 13.1495 3.56157L12.6544 3.45673L12.6274 2.61109C12.5982 1.69926 12.5624 1.56621 12.2672 1.27184C11.9499 0.955557 11.4478 0.856223 11.0591 1.03292ZM7.27359 26.4555C7.27359 26.6436 7.61153 27.4918 7.83687 27.8694C8.76697 29.4275 10.5707 30.266 12.2576 29.9244C13.4443 29.6841 14.4333 28.993 15.1042 27.9351C15.3429 27.5588 15.7042 26.6828 15.7081 26.4713C15.7098 26.3775 15.4737 26.372 11.4917 26.372C7.81503 26.372 7.27359 26.3827 7.27359 26.4555Z" fill="#1D1348"/>
<ellipse cx="20.2787" cy="8.1418" rx="4.7605" ry="5.08907" fill="#FF6A5B" stroke="white"/>
</svg>
