<svg width="37" height="32" viewBox="0 0 37 32" fill="none" xmlns="http://www.w3.org/2000/svg">
<path fill-rule="evenodd" clip-rule="evenodd" d="M28.6364 0.151788C28.4578 0.249029 27.5234 0.785404 26.5601 1.34366C25.5967 1.90199 24.7807 2.35876 24.7468 2.35876C24.713 2.35876 23.8497 2.05415 22.8284 1.68181C21.8072 1.30947 20.7675 0.964843 20.518 0.915899C19.9226 0.799223 19.1467 0.863643 18.5571 1.07871C17.9704 1.2927 11.9624 4.74538 11.5479 5.10678C11.167 5.43888 10.8221 6.07919 10.7213 6.6414C10.4466 8.17279 11.601 9.644 13.1653 9.75593C14.0888 9.82201 13.8253 9.94681 18.7043 7.13279C20.1493 6.29944 21.4575 5.57671 21.6116 5.52676C22.0624 5.3805 22.7682 5.46594 23.2749 5.72808C23.5124 5.85095 26.5247 7.58279 29.9688 9.57663C35.9594 13.0446 36.238 13.1972 36.3969 13.0956C36.6164 12.9552 36.8426 12.5011 36.8426 12.2006C36.8426 11.916 36.9275 12.0668 32.9905 5.35718C31.0154 1.99117 29.9723 0.280987 29.8336 0.181371C29.5128 -0.0490284 29.0272 -0.0610486 28.6364 0.151788ZM6.86133 1.64359C6.74113 1.67857 6.55809 1.79704 6.45466 1.90703C6.30286 2.06833 1.05672 11.7518 0.215598 13.4232C-0.0484862 13.948 -0.0669124 14.2482 0.143549 14.5936C0.319534 14.8822 0.422677 14.9729 0.809771 15.1788C1.03621 15.2993 1.10092 15.3092 1.15001 15.2312C1.18333 15.1781 1.46232 14.698 1.77002 14.1642C2.62007 12.6896 3.45278 11.9482 4.70475 11.5515C5.11178 11.4226 5.3745 11.3924 6.07232 11.3946C6.82347 11.3969 7.00946 11.4229 7.49948 11.5939C8.12266 11.8114 8.74224 12.1748 9.13941 12.5558L9.39939 12.8052L9.8232 12.6789C10.3404 12.5245 11.4469 12.5062 12.0104 12.6424C12.2282 12.6951 12.6816 12.8687 13.0181 13.028C14.1377 13.5583 15.1337 14.7766 15.4031 15.945C15.4858 16.3038 15.5057 16.3276 15.7838 16.4017C16.343 16.5506 17.1937 17.0525 17.6515 17.5036C18.2035 18.0475 18.5699 18.6422 18.8191 19.3983L19.011 19.9807L19.5275 20.1692C20.6129 20.565 21.5116 21.3711 22.0195 22.4044C22.4341 23.2481 22.5432 23.7615 22.5013 24.6708C22.4537 25.7011 22.2969 26.1233 21.3601 27.7436C20.8152 28.686 20.6058 29.1094 20.6674 29.144C20.7159 29.1712 21.4306 29.5826 22.2555 30.058C23.8598 30.9826 24.2202 31.1196 24.8887 31.059C25.5152 31.0023 25.9889 30.7627 26.4414 30.274C27.314 29.3315 27.3258 28.0002 26.4706 27.0087C26.263 26.768 26.2532 26.7423 26.4059 26.8388C26.858 27.1244 27.7725 27.6305 28.0918 27.7717C28.887 28.1234 29.9907 27.9084 30.6388 27.2754C31.1881 26.739 31.3365 26.3608 31.3357 25.4994C31.335 24.7042 31.2397 24.4319 30.7781 23.9058L30.5446 23.6398L31.2644 24.0297C31.9841 24.4198 31.9842 24.4198 32.6319 24.4194C33.3984 24.419 33.7651 24.2817 34.2885 23.7993C35.2836 22.882 35.3325 21.3274 34.3966 20.3629C34.2437 20.2054 33.8652 19.9272 33.5553 19.7446C33.0375 19.4395 33.0151 19.4171 33.2797 19.4689C34.4321 19.6947 35.5919 19.112 36.0732 18.0654C36.3152 17.5392 36.2969 16.6369 36.0332 16.1C35.9246 15.8787 35.7049 15.5682 35.5451 15.41C35.3681 15.2348 34.2768 14.5573 32.7555 13.6783C31.3812 12.8842 28.484 11.2101 26.3173 9.95804C24.1506 8.706 22.3346 7.66499 22.2819 7.64477C22.2291 7.62447 20.761 8.43126 19.0194 9.43765C15.2973 11.5886 15.2527 11.6121 14.5472 11.7925C12.7246 12.2587 10.6578 11.5415 9.52946 10.0515C8.85647 9.16269 8.5325 8.20669 8.5325 7.10925C8.5325 5.83691 8.9933 4.6752 9.8599 3.76296L10.3583 3.23817L9.03641 2.47709C7.35135 1.50698 7.34264 1.50359 6.86133 1.64359ZM5.33988 13.6146C4.93731 13.7462 4.61506 13.9534 4.29793 14.2845C4.05019 14.5431 1.50464 18.8607 1.18722 19.5606C0.961427 20.0585 0.979205 20.9102 1.22652 21.4434C1.46613 21.9599 1.90786 22.4024 2.42681 22.6457C2.76662 22.805 2.93375 22.8363 3.44515 22.8363C4.16708 22.8363 4.66559 22.6422 5.13006 22.1804C5.3072 22.0043 5.39033 21.9539 5.35449 22.0445C5.3231 22.1237 5.28244 22.4476 5.26401 22.7643C5.2368 23.2331 5.25912 23.4156 5.38393 23.7466C5.59755 24.3128 6.01545 24.761 6.59667 25.0469C7.02126 25.2559 7.14478 25.2832 7.65452 25.281C8.34478 25.278 8.88051 25.0665 9.32569 24.6213L9.60669 24.3403L9.51297 24.7016C9.38946 25.1778 9.39471 25.4987 9.5337 25.9667C10.0558 27.7249 12.1555 28.3089 13.5205 27.0757L13.8006 26.8227L13.725 27.0963C13.5998 27.5496 13.6863 28.3962 13.9 28.8104C14.1238 29.2443 14.5929 29.708 15.0335 29.9309C15.5172 30.1757 16.3741 30.2068 16.9239 29.9995C17.6527 29.7246 17.9286 29.3867 19.1289 27.2989C19.728 26.2567 20.2433 25.2744 20.2917 25.0821C20.4213 24.5671 20.3464 23.8454 20.1161 23.3917C19.3739 21.9294 17.4966 21.5979 16.301 22.718L16.021 22.9802L16.2878 22.5124C16.6509 21.8754 16.7604 21.6152 16.8544 21.1672C17.0036 20.4558 16.7023 19.575 16.1286 19.0463C15.1793 18.1712 13.8086 18.149 12.8382 18.9928L12.5567 19.2374L12.792 18.8415C13.2962 17.9932 13.342 17.8492 13.342 17.1141C13.342 16.5341 13.3152 16.376 13.1658 16.0723C12.6554 15.035 11.5101 14.4921 10.4198 14.7707C9.63246 14.9718 9.189 15.3445 8.68214 16.2309C8.51854 16.5171 8.37537 16.742 8.36407 16.7307C8.35277 16.7194 8.37876 16.5824 8.42187 16.4263C8.5939 15.8032 8.33874 14.8549 7.849 14.297C7.72578 14.1567 7.42211 13.9338 7.17436 13.8017C6.79986 13.6021 6.6323 13.5577 6.18208 13.5389C5.85746 13.5254 5.52003 13.5557 5.33988 13.6146Z" fill="#949AAF"/>
</svg>
