<svg width="36" height="36" viewBox="0 0 36 36" fill="none" xmlns="http://www.w3.org/2000/svg">
<path fill-rule="evenodd" clip-rule="evenodd" d="M16.7687 0.0803076C15.8789 0.3308 16.1257 0.102149 8.21328 8.00429C4.10334 12.1089 0.649952 15.603 0.539026 15.769C-0.311768 17.0423 -0.140538 18.746 0.947561 19.8341C1.57726 20.4638 2.38128 20.7902 3.30275 20.7902H3.76912V26.2816C3.76912 29.9991 3.79343 31.8905 3.84447 32.1369C4.10375 33.3893 5.11691 34.5205 6.36608 34.9521C6.82173 35.1096 6.8536 35.1109 10.1689 35.1109C13.4384 35.1109 13.5163 35.1078 13.7019 34.9693C13.8062 34.8914 13.9553 34.7423 14.0332 34.6381C14.1721 34.4521 14.1755 34.3598 14.2092 29.8633L14.2435 25.278L14.452 24.9401C14.7119 24.519 15.2425 24.1823 15.7448 24.1199C15.939 24.0958 16.9016 24.0862 17.8838 24.0987L19.6696 24.1214L20.0304 24.3213C20.3744 24.5119 20.5965 24.7389 20.8093 25.1173C20.8886 25.2582 20.9121 26.1089 20.9402 29.8688C20.9739 34.3598 20.9773 34.4521 21.1162 34.6381C21.1941 34.7423 21.3432 34.8914 21.4475 34.9693C21.633 35.1078 21.711 35.1109 24.9805 35.1109C28.2958 35.1109 28.3277 35.1096 28.7833 34.9521C30.0325 34.5205 31.0456 33.3893 31.3049 32.1369C31.356 31.8905 31.3803 29.9991 31.3803 26.2816V20.7902H31.8466C33.4969 20.7902 34.8313 19.6711 35.1021 18.06C35.2091 17.4237 35.1058 16.7488 34.8051 16.1196C34.6083 15.7079 34.0109 15.0916 27.1306 8.20121C23.0271 4.09162 19.5238 0.635003 19.3454 0.519888C19.1672 0.404842 18.8581 0.247829 18.6586 0.17104C18.1815 -0.0126224 17.2564 -0.0570613 16.7687 0.0803076Z" fill="#949AAF"/>
</svg>
