<svg width="39" height="29" viewBox="0 0 39 29" fill="none" xmlns="http://www.w3.org/2000/svg">
<path fill-rule="evenodd" clip-rule="evenodd" d="M2.94081 0.122077C2.71275 0.185987 2.49269 0.273036 2.45191 0.315538C2.36922 0.401722 18.7653 17.5546 19.1161 17.749C19.3785 17.8945 20.0318 17.8945 20.2942 17.749C20.6422 17.5561 37.0411 0.401721 36.9591 0.316403C36.9186 0.274295 36.683 0.184885 36.4354 0.117748C36.0351 0.00913247 34.1804 -0.00385416 19.6704 0.000789542C5.53758 0.00527583 3.30005 0.0214895 2.94081 0.122077ZM0.548476 2.45518C0.416999 2.84816 0.410278 3.42028 0.410278 14.1628C0.410278 24.9053 0.416999 25.4775 0.548476 25.8704C0.624523 26.0977 0.709556 26.2837 0.737498 26.2837C0.765364 26.2837 3.4048 23.5565 6.60276 20.2232L12.4173 14.1628L6.60276 8.10239C3.4048 4.76916 0.765364 2.04197 0.737498 2.04197C0.709556 2.04197 0.624523 2.22788 0.548476 2.45518ZM32.8075 8.10239L26.993 14.1628L32.8075 20.2232C36.0055 23.5565 38.6449 26.2837 38.6728 26.2837C38.7007 26.2837 38.7858 26.0977 38.8618 25.8704C38.9933 25.4775 39 24.9053 39 14.1628C39 3.42028 38.9933 2.84816 38.8618 2.45518C38.7858 2.22788 38.7007 2.04197 38.6728 2.04197C38.6449 2.04197 36.0055 4.76916 32.8075 8.10239ZM8.15269 21.9135C4.40956 25.815 2.40358 27.9597 2.45123 28.0093C2.49171 28.0513 2.72732 28.1407 2.97487 28.2079C3.37489 28.3164 5.23709 28.33 19.7051 28.33C34.1732 28.33 36.0354 28.3164 36.4354 28.2079C36.683 28.1407 36.9187 28.0513 36.9591 28.0092C37.0069 27.9596 34.9983 25.8124 31.241 21.8964L25.4493 15.86L23.6533 17.7145C22.01 19.4113 21.8064 19.595 21.2572 19.8764L20.657 20.1839H19.7051H18.7533L18.1531 19.8753C17.6057 19.5939 17.396 19.4049 15.7724 17.7305C14.7931 16.7206 13.9774 15.8944 13.9597 15.8944C13.9421 15.8944 11.3289 18.603 8.15269 21.9135Z" fill="#949AAF"/>
</svg>
