<svg width="35" height="35" viewBox="0 0 35 35" fill="none" xmlns="http://www.w3.org/2000/svg">
<path fill-rule="evenodd" clip-rule="evenodd" d="M12.0707 0.0510161C10.3549 0.32164 8.59234 1.30588 7.55735 2.57135C6.42262 3.95861 5.86696 5.46617 5.8515 7.19899C5.83645 8.88445 6.31173 10.3439 7.30506 11.6625C8.28793 12.9673 9.64614 13.8834 11.2661 14.3344C11.8686 14.5022 12.0355 14.5187 13.1252 14.5191C14.1613 14.5195 14.4005 14.4983 14.9037 14.3621C17.0262 13.7873 18.7186 12.4113 19.6544 10.4998C21.0464 7.65628 20.4858 4.31532 18.2439 2.09373C17.3271 1.18524 16.1775 0.534376 14.9178 0.210517C14.1692 0.0180348 12.7748 -0.0601076 12.0707 0.0510161ZM6.04509 17.6058C3.3838 18.0873 1.23495 19.9406 0.362358 22.5069C0.0276452 23.4913 -0.017503 24.0734 0.00479747 27.1231C0.0246353 29.8454 0.0301078 29.9471 0.166373 30.1296C0.243946 30.2335 0.392388 30.3819 0.496298 30.4595C0.682363 30.5985 0.757542 30.6009 5.57623 30.6191C10.2276 30.6366 10.4656 30.6316 10.4322 30.5165C10.2661 29.9445 10.2306 29.6911 10.2332 29.0953C10.2405 27.4398 11.1628 25.9957 12.6805 25.2639C13.0191 25.1006 13.4593 24.9337 13.6587 24.8928C13.8787 24.8478 14.9684 24.8187 16.4319 24.8187C19.0138 24.8187 19.2475 24.8429 20.0054 25.189L20.3528 25.3477L21.0217 24.0055C21.3897 23.2672 21.8267 22.4718 21.993 22.2378C22.5185 21.4984 23.459 20.8591 24.3723 20.6206C24.5897 20.5638 24.7796 20.5052 24.7944 20.4905C24.8572 20.4276 23.9924 19.5081 23.4887 19.102C22.799 18.5461 21.6473 17.9644 20.7525 17.7202L20.0684 17.5336L13.3304 17.5202C7.70572 17.5091 6.5019 17.5232 6.04509 17.6058ZM25.1808 23.3803C25.058 23.4094 24.8354 23.514 24.6863 23.6128C24.436 23.7784 24.2828 24.0567 22.6988 27.2214L20.9826 30.6504L20.1292 29.3779C19.405 28.298 19.227 28.0767 18.9538 27.9161L18.6319 27.7268H16.4087H14.1855L13.8624 27.9168C13.0382 28.4014 12.8926 29.5169 13.5658 30.1892C13.9724 30.5954 14.1803 30.6346 15.9378 30.6366L17.469 30.6383L18.7683 32.596C19.4831 33.6728 20.1603 34.6227 20.2733 34.707C20.7678 35.0758 21.3903 35.0977 21.9354 34.7656C22.2558 34.5703 22.2658 34.5526 23.9334 31.2339C24.8551 29.3993 25.628 27.8982 25.6509 27.8981C25.6737 27.898 26.3797 29.0448 27.2198 30.4467C28.0598 31.8486 28.8372 33.0803 28.9472 33.184C29.3313 33.5456 29.6669 33.5887 31.9189 33.5646L33.9549 33.5429L34.278 33.3529C35.1022 32.8683 35.2478 31.7528 34.5746 31.0805C34.1687 30.6751 33.9577 30.6349 32.2364 30.6349H30.739L28.7345 27.2915C27.632 25.4527 26.6286 23.8499 26.5046 23.7297C26.3807 23.6096 26.1313 23.4667 25.9505 23.4122C25.5919 23.3043 25.5146 23.3011 25.1808 23.3803Z" fill="#949AAF"/>
</svg>
